<svg xmlns="http://www.w3.org/2000/svg" viewBox="0 0 80 80" width="100%" height="100%">
  <!-- Sunburst Icon Group -->
  <g transform="translate(10, 10)">
    <!-- Radial rays (orange) -->
    <path d="M 30,5 L 30,12 M 30,48 L 30,55 M 5,30 L 12,30 M 48,30 L 55,30" stroke="#f96419" stroke-width="4" stroke-linecap="round"/>
    <path d="M 12,12 L 17,17 M 43,43 L 48,48 M 12,48 L 17,43 M 48,12 L 43,17" stroke="#f96419" stroke-width="4" stroke-linecap="round"/>
    
    <!-- Abstract F Shape (Navy & Orange) -->
    <path d="M 22,20 L 38,20 L 38,26 L 28,26 L 28,31 L 36,31 L 36,37 L 28,37 L 28,45 L 22,45 Z" fill="#032177"/>
    <!-- Accent dot/shard inside F -->
    <rect x="33" y="37" width="5" height="8" rx="1" fill="#f96419" />
  </g>
</svg>
